<svg width="13" height="7" viewBox="0 0 13 7" fill="none" xmlns="http://www.w3.org/2000/svg">
<path d="M11.8835 5.72521L6.27822 0.120317C6.19814 0.0401479 6.10601 0 6.00178 0C5.89756 0 5.80526 0.0401479 5.72513 0.120317L0.120317 5.72521C0.0400214 5.80551 0 5.89764 0 6.00191C0 6.10613 0.0401478 6.19839 0.120317 6.27852L0.721565 6.87973C0.801735 6.95989 0.893995 6.99996 0.998219 6.99996C1.10244 6.99996 1.1947 6.95989 1.27487 6.87973L6.00178 2.1529L10.7289 6.88002C10.809 6.96019 10.9013 7 11.0053 7C11.1097 7 11.202 6.95994 11.2821 6.88002L11.8835 6.27856C11.9636 6.19843 12.0034 6.10613 12.0034 6.00195C12.0034 5.89764 11.9636 5.80538 11.8835 5.72521Z" fill="#464A4D"/>
</svg>
