<svg width="19" height="19" viewBox="0 0 19 19" fill="none" xmlns="http://www.w3.org/2000/svg">
<path d="M18.4433 2.98111H16.0188V0.556641C16.0188 0.249226 15.7696 0 15.4622 0C15.1548 0 14.9056 0.249226 14.9056 0.556641V2.98111H12.4811C12.1737 2.98111 11.9245 3.23033 11.9245 3.53775C11.9245 3.84516 12.1737 4.09439 12.4811 4.09439H14.9056V6.51889C14.9056 6.82631 15.1548 7.07553 15.4622 7.07553C15.7696 7.07553 16.0188 6.82631 16.0188 6.51889V4.09439H18.4433C18.7508 4.09439 19 3.84516 19 3.53775C19 3.23033 18.7508 2.98111 18.4433 2.98111Z" fill="white"/>
<path d="M6.51885 11.9245C2.92437 11.9245 0 14.8489 0 18.4434C0 18.7508 0.249226 19 0.556641 19H12.4811C12.7886 19 13.0378 18.7508 13.0378 18.4434C13.0378 14.8489 10.1134 11.9245 6.51885 11.9245ZM1.14174 17.8867C1.42129 15.1666 3.72615 13.0378 6.51885 13.0378C9.31163 13.0378 11.6165 15.1666 11.896 17.8867H1.14174Z" fill="white"/>
<path d="M6.51883 2.38489C4.56814 2.38489 2.98112 3.97194 2.98112 5.92267C2.98112 7.87336 4.56814 9.46042 6.51883 9.46042C8.46956 9.46042 10.0566 7.8734 10.0566 5.92267C10.0566 3.97194 8.46956 2.38489 6.51883 2.38489ZM6.51883 8.34714C5.18201 8.34714 4.09441 7.25954 4.09441 5.92267C4.09441 4.58577 5.18201 3.49817 6.51883 3.49817C7.8557 3.49817 8.94334 4.58581 8.94334 5.92267C8.94334 7.25954 7.8557 8.34714 6.51883 8.34714Z" fill="white"/>
</svg>
