<svg width="16" height="16" viewBox="0 0 16 16" fill="none" xmlns="http://www.w3.org/2000/svg">
<path d="M15.8581 15.184L11.9698 11.2958C13.0129 10.0967 13.6443 8.53215 13.6443 6.82217C13.6443 3.05809 10.5827 0 6.82217 0C3.05809 0 0 3.06164 0 6.82217C0 10.5827 3.06164 13.6443 6.82217 13.6443C8.53215 13.6443 10.0967 13.0129 11.2958 11.9698L15.184 15.8581C15.2763 15.9503 15.4004 16 15.5211 16C15.6417 16 15.7659 15.9539 15.8581 15.8581C16.0426 15.6736 16.0426 15.3685 15.8581 15.184ZM0.954324 6.82217C0.954324 3.5867 3.5867 0.957871 6.81862 0.957871C10.0541 0.957871 12.6829 3.59024 12.6829 6.82217C12.6829 10.0541 10.0541 12.69 6.81862 12.69C3.5867 12.69 0.954324 10.0576 0.954324 6.82217Z" fill="white"/>
</svg>
