<svg width="20" height="20" viewBox="0 0 20 20" fill="none" xmlns="http://www.w3.org/2000/svg">
<path d="M0.64164 14.6534L0.648507 14.6465C1.50993 13.7849 2.1053 13.0201 2.51947 12.3012M0.64164 14.6534L3.14729 10.8565M0.64164 14.6534C0.643867 14.651 0.646114 14.6488 0.648398 14.6465M0.64164 14.6534L0.648398 14.6465M2.51947 12.3012C2.8064 11.8032 3.00637 11.3272 3.1476 10.8564C3.15844 10.8202 3.16895 10.7841 3.17913 10.7479C3.16884 10.7839 3.15823 10.8201 3.14729 10.8565M2.51947 12.3012C2.79488 11.8225 3.00052 11.3459 3.14729 10.8565M2.51947 12.3012C2.08428 13.0577 1.4749 13.8196 0.648398 14.6465M3.14729 10.8565L0.648398 14.6465M16.4991 7.20809C16.5042 8.57816 16.5618 9.64192 16.7728 10.5658C16.5158 9.54599 16.5001 8.49995 16.4991 7.20809ZM10.0001 0.5C12.5465 0.5 14.7509 1.96483 15.8168 4.09804C14.7508 1.96503 12.5466 0.5 10.0001 0.5ZM3.50143 7C3.50143 7.68498 3.50069 8.30048 3.46745 8.87727C3.49382 8.37622 3.50143 7.77646 3.50143 7ZM7.00051 16.5242L7.00084 16.5209C7.01209 18.1675 8.35045 19.4996 9.99975 19.5C8.35139 19.5 7.0135 18.17 7.00051 16.5242Z" fill="#2C2F34" stroke="white"/>
</svg>
