<svg width="20" height="6" viewBox="0 0 20 6" fill="none" xmlns="http://www.w3.org/2000/svg">
<path d="M0.5 2.66667C0.5 1.47248 1.47248 0.5 2.66667 0.5C3.86086 0.5 4.83333 1.47248 4.83333 2.66667C4.83333 3.86086 3.86086 4.83333 2.66667 4.83333C1.47248 4.83333 0.5 3.86086 0.5 2.66667Z" fill="#2C2F34" stroke="white"/>
<path d="M15.1667 2.66667C15.1667 1.47248 16.1391 0.5 17.3333 0.5C18.5275 0.5 19.5 1.47248 19.5 2.66667C19.5 3.86086 18.5275 4.83333 17.3333 4.83333C16.1391 4.83333 15.1667 3.86086 15.1667 2.66667Z" fill="#2C2F34" stroke="white"/>
<path d="M7.83334 2.66667C7.83334 1.47248 8.80582 0.5 10 0.5C11.1942 0.5 12.1667 1.47248 12.1667 2.66667C12.1667 3.86086 11.1942 4.83333 10 4.83333C8.80582 4.83333 7.83334 3.86086 7.83334 2.66667Z" fill="#2C2F34" stroke="white"/>
</svg>
