<svg width="20" height="13" viewBox="0 0 20 13" fill="none" xmlns="http://www.w3.org/2000/svg">
<mask id="path-1-inside-1" fill="white">
<path d="M19.5833 12.5H0.416679C0.186679 12.5 0 12.3133 0 12.0833C0 11.8533 0.186679 11.6666 0.416679 11.6666H19.5833C19.8133 11.6666 20 11.8533 20 12.0833C20 12.3133 19.8133 12.5 19.5833 12.5Z"/>
</mask>
<path d="M19.5833 12.5H0.416679C0.186679 12.5 0 12.3133 0 12.0833C0 11.8533 0.186679 11.6666 0.416679 11.6666H19.5833C19.8133 11.6666 20 11.8533 20 12.0833C20 12.3133 19.8133 12.5 19.5833 12.5Z" fill="#2C2F34"/>
<path d="M19.5833 13.5H0.416679V11.5H19.5833V13.5ZM0.416679 13.5C-0.365605 13.5 -1 12.8656 -1 12.0833H1C1 11.761 0.738964 11.5 0.416679 11.5V13.5ZM-1 12.0833C-1 11.301 -0.365605 10.6666 0.416679 10.6666V12.6666C0.738964 12.6666 1 12.4056 1 12.0833H-1ZM0.416679 10.6666H19.5833V12.6666H0.416679V10.6666ZM19.5833 10.6666C20.3656 10.6666 21 11.301 21 12.0833H19C19 12.4056 19.261 12.6666 19.5833 12.6666V10.6666ZM21 12.0833C21 12.8657 20.3654 13.5 19.5833 13.5V11.5C19.2611 11.5 19 11.7609 19 12.0833H21Z" fill="white" mask="url(#path-1-inside-1)"/>
<mask id="path-3-inside-2" fill="white">
<path d="M19.5833 6.66669H0.416679C0.186679 6.66669 0 6.48001 0 6.25001C0 6.02001 0.186679 5.83333 0.416679 5.83333H19.5833C19.8133 5.83333 20 6.02001 20 6.25001C20 6.48001 19.8133 6.66669 19.5833 6.66669Z"/>
</mask>
<path d="M19.5833 6.66669H0.416679C0.186679 6.66669 0 6.48001 0 6.25001C0 6.02001 0.186679 5.83333 0.416679 5.83333H19.5833C19.8133 5.83333 20 6.02001 20 6.25001C20 6.48001 19.8133 6.66669 19.5833 6.66669Z" fill="#2C2F34"/>
<path d="M19.5833 7.66669H0.416679V5.66669H19.5833V7.66669ZM0.416679 7.66669C-0.365606 7.66669 -1 7.03229 -1 6.25001H1C1 5.92772 0.738965 5.66669 0.416679 5.66669V7.66669ZM-1 6.25001C-1 5.46772 -0.365604 4.83333 0.416679 4.83333V6.83333C0.738963 6.83333 1 6.57229 1 6.25001H-1ZM0.416679 4.83333H19.5833V6.83333H0.416679V4.83333ZM19.5833 4.83333C20.3656 4.83333 21 5.46773 21 6.25001H19C19 6.57229 19.261 6.83333 19.5833 6.83333V4.83333ZM21 6.25001C21 7.03241 20.3654 7.66669 19.5833 7.66669V5.66669C19.2611 5.66669 19 5.92761 19 6.25001H21Z" fill="white" mask="url(#path-3-inside-2)"/>
<mask id="path-5-inside-3" fill="white">
<path d="M19.5833 0.833344H0.416679C0.186679 0.833344 0 0.646703 0 0.416703C0 0.186704 0.186679 2.44975e-05 0.416679 2.44975e-05H19.5833C19.8133 2.44975e-05 20 0.186704 20 0.416703C20 0.646703 19.8133 0.833344 19.5833 0.833344Z"/>
</mask>
<path d="M19.5833 0.833344H0.416679C0.186679 0.833344 0 0.646703 0 0.416703C0 0.186704 0.186679 2.44975e-05 0.416679 2.44975e-05H19.5833C19.8133 2.44975e-05 20 0.186704 20 0.416703C20 0.646703 19.8133 0.833344 19.5833 0.833344Z" fill="#2C2F34"/>
<path d="M20 0.416703H21V0.416873L20 0.416703ZM19.5833 1.83334H0.416679V-0.166656H19.5833V1.83334ZM0.416679 1.83334C-0.365485 1.83334 -1 1.19911 -1 0.416703H1C1 0.0942977 0.738844 -0.166656 0.416679 -0.166656V1.83334ZM-1 0.416703C-1 -0.365582 -0.365604 -0.999976 0.416679 -0.999976V1.00002C0.738963 1.00002 1 0.738989 1 0.416703H-1ZM0.416679 -0.999976H19.5833V1.00002H0.416679V-0.999976ZM19.5833 -0.999976C20.3656 -0.999976 21 -0.365578 21 0.416703H19C19 0.738985 19.261 1.00002 19.5833 1.00002V-0.999976ZM21 0.416873C20.9999 1.19911 20.3655 1.83334 19.5833 1.83334V-0.166656C19.2611 -0.166656 19.0001 0.0942971 19 0.416533L21 0.416873Z" fill="white" mask="url(#path-5-inside-3)"/>
</svg>
