<svg width="20" height="18" viewBox="0 0 20 18" fill="none" xmlns="http://www.w3.org/2000/svg">
<path d="M6.26173 1.04193L6.26171 1.04193C5.0699 1.40448 4.05711 1.8903 3.21553 2.49338L3.21552 2.49339C2.37429 3.09619 1.71222 3.8073 1.22138 4.62631C0.736538 5.43536 0.5 6.27174 0.5 7.14277C0.5 8.15091 0.801948 9.09846 1.42135 9.99497L6.26173 1.04193ZM6.26173 1.04193C7.44736 0.681231 8.69282 0.5 10.0002 0.5C11.7561 0.5 13.3646 0.807421 14.8308 1.41601C16.3002 2.02594 17.4408 2.84732 18.2731 3.87024M6.26173 1.04193L18.2731 3.87024M18.2731 3.87024C19.1004 4.88713 19.5 5.97389 19.5 7.14272C19.5 8.31153 19.1004 9.39834 18.2729 10.4149L18.2728 10.415C17.4406 11.4377 16.3001 12.2591 14.8307 12.869L14.8306 12.869C13.3642 13.4778 11.7558 13.7853 9.99994 13.7853C9.49816 13.7853 8.97645 13.7565 8.43474 13.6987L8.21564 13.6754L8.05056 13.8213C6.63829 15.0698 4.99842 15.933 3.12381 16.4126L3.11693 16.4144L3.1101 16.4163C2.78293 16.51 2.39398 16.586 1.93976 16.6429C1.93971 16.6428 1.93966 16.6428 1.93961 16.6427V16.6189C1.94081 16.6135 1.94196 16.6082 1.94306 16.6028L1.97533 16.5545L1.97878 16.5503L2.03749 16.4791C2.03753 16.4791 2.03757 16.479 2.03761 16.479C2.03966 16.4765 2.04165 16.4741 2.04358 16.4717L2.04758 16.4699L2.11789 16.3893C2.1662 16.3339 2.2778 16.2098 2.45722 16.0114C2.50021 15.964 2.54022 15.9199 2.57728 15.8791C2.69457 15.7498 2.78234 15.6531 2.84127 15.5885C2.93926 15.4812 3.06824 15.3151 3.22142 15.1058M18.2731 3.87024L3.94351 13.7751C3.82894 14.05 3.72239 14.2841 3.62401 14.4726L3.62392 14.4728C3.51994 14.6719 3.38449 14.8833 3.22142 15.1058M3.22142 15.1058C3.22136 15.1059 3.22129 15.106 3.22123 15.1061L2.81792 14.8105L3.22142 15.1058ZM4.35783 12.4917L4.25439 12.8673C4.16727 13.1836 4.06387 13.4865 3.94358 13.7749L4.35783 12.4917ZM4.35783 12.4917L4.01889 12.2996M4.35783 12.4917L4.01889 12.2996M4.01889 12.2996C2.90748 11.6696 2.04656 10.8998 1.42136 9.995L4.01889 12.2996ZM6.11623 0.563685L6.11625 0.563756L6.11623 0.563685Z" fill="#2C2F34" stroke="white"/>
</svg>
